<?xml version="1.0" encoding="UTF-8" standalone="no"?>
<svg
   width="57.380001mm"
   height="70mm"
   viewBox="0 0 57.380001 70"
   version="1.1"
   id="svg1493"
   inkscape:version="1.2.1 (9c6d41e410, 2022-07-14)"
   sodipodi:docname="EMFHamsDanger.svg"
   xml:space="preserve"
   xmlns:inkscape="http://www.inkscape.org/namespaces/inkscape"
   xmlns:sodipodi="http://sodipodi.sourceforge.net/DTD/sodipodi-0.dtd"
   xmlns="http://www.w3.org/2000/svg"
   xmlns:svg="http://www.w3.org/2000/svg"
   xmlns:rdf="http://www.w3.org/1999/02/22-rdf-syntax-ns#"
   xmlns:cc="http://creativecommons.org/ns#"
   xmlns:dc="http://purl.org/dc/elements/1.1/"><defs
     id="defs1487"><rect
   x="131.32425"
   y="53.371239"
   width="36.872662"
   height="7.9724669"
   id="rect2232" /><rect
   x="92.015556"
   y="25.799789"
   width="38.533592"
   height="34.658085"
   id="rect2226" /><rect
   x="95.448151"
   y="13.176717"
   width="28.125092"
   height="4.7613344"
   id="rect2211" />
	
	
	
	
	
<rect
   x="92.015556"
   y="25.799789"
   width="38.533592"
   height="34.658085"
   id="rect2226-9" /><rect
   x="92.015556"
   y="25.799789"
   width="38.533592"
   height="34.658085"
   id="rect2226-9-1" /><rect
   x="131.32425"
   y="53.371239"
   width="36.872662"
   height="7.9724669"
   id="rect2232-7" /></defs><sodipodi:namedview
     id="base"
     pagecolor="#ffffff"
     bordercolor="#666666"
     borderopacity="1.0"
     inkscape:pageopacity="0.0"
     inkscape:pageshadow="2"
     inkscape:zoom="2.6795913"
     inkscape:cx="128.56438"
     inkscape:cy="120.35417"
     inkscape:document-units="mm"
     inkscape:current-layer="layer1"
     inkscape:document-rotation="0"
     showgrid="false"
     inkscape:window-width="1920"
     inkscape:window-height="991"
     inkscape:window-x="-9"
     inkscape:window-y="-9"
     inkscape:window-maximized="1"
     inkscape:showpageshadow="2"
     inkscape:pagecheckerboard="0"
     inkscape:deskcolor="#d1d1d1" /><metadata
     id="metadata1490"><rdf:RDF><cc:Work
         rdf:about=""><dc:format>image/svg+xml</dc:format><dc:type
           rdf:resource="http://purl.org/dc/dcmitype/StillImage" /></cc:Work></rdf:RDF></metadata><g
     inkscape:label="Layer 1"
     inkscape:groupmode="layer"
     id="layer1"><path
       d="m -12.529602,86.66852 c 0,0.218017 -0.177006,0.394759 -0.394758,0.394759 -0.217753,0 -0.394494,-0.176742 -0.394494,-0.394759 0,-0.217487 0.176741,-0.394229 0.394494,-0.394229 0.217752,0 0.394758,0.176742 0.394758,0.394229 z"
       fill="#010101"
       id="path2097"
       style="stroke-width:0.264583" /><g
       id="g47406"
       transform="matrix(0.34516353,0,0,0.34516353,-49.230348,16.071324)"><rect
         style="fill:#ffffff;fill-opacity:1;stroke:#000000;stroke-width:0.970829;stroke-linecap:round;stroke-linejoin:round;stroke-dasharray:none;stroke-opacity:1"
         id="rect2115-0"
         width="172.85982"
         height="136.29817"
         x="-31.590176"
         y="-293.89816"
         rx="10"
         ry="10"
         transform="rotate(90)" /><g
         id="g47384"
         transform="translate(0,-2.6604747)"><text
           xml:space="preserve"
           id="text2230-1"
           style="font-size:3.88056px;line-height:1.25;font-family:sans-serif;white-space:pre;shape-inside:url(#rect2232-7);display:inline"
           transform="matrix(1.4634319,0,0,1.4634319,15.04544,53.28953)"><tspan
             x="131.32422"
             y="56.911446"
             id="tspan47443"><tspan
               style="font-family:Helvetica;-inkscape-font-specification:Helvetica"
               id="tspan47441">emfhams.org</tspan></tspan></text><g
           id="g47312"
           transform="translate(0,2.1166667)"><path
             d="m 225.74907,-21.769505 56.30276,97.538556 h -112.6055 z"
             fill="#ffdd44"
             stroke-width="6.34397"
             stroke="#000000"
             stroke-linejoin="round"
             id="path43835"
             style="fill:#ffdf00;fill-opacity:1" /><g
             id="g44759"
             transform="matrix(1.1265858,0,0,1.1265858,-79.936475,114.36576)"><g
               id="g44719"><path
                 d="m 286.24349,-80.145731 -2.57909,2.579119 c 3.35285,3.225699 5.45693,7.74096 5.45693,12.775639 0,5.019083 -2.12087,9.533144 -5.45693,12.775633 l 2.63789,2.6379 c 4.01385,-3.901067 6.53897,-9.320814 6.53897,-15.355952 0,-6.063932 -2.54913,-11.50647 -6.59777,-15.412339 z m -30.35082,0.541016 c -3.74031,3.861481 -6.05789,9.085694 -6.05789,14.872518 0,5.772429 2.27441,11.017041 5.99791,14.874922 l 2.63913,-2.6379 c -3.05058,-3.198106 -4.91953,-7.539423 -4.91953,-12.295798 0,-4.758774 1.86895,-9.05331 4.91953,-12.237022 z m 25.43133,4.376104 -2.21924,2.279225 c 2.17604,2.066893 3.53997,4.985495 3.53997,8.217189 0,3.217303 -1.32196,6.152699 -3.47881,8.219593 l 2.04052,2.038103 c 2.77223,-2.615103 4.49607,-6.323035 4.49607,-10.435232 0,-4.053417 -1.67586,-7.71097 -4.37851,-10.318878 z m -20.45181,0.599797 c -2.3656,2.556326 -3.83869,5.960762 -3.83869,9.719081 0,3.83509 1.50548,7.323496 3.95866,9.896621 l 2.03931,-2.040507 c -1.84979,-2.020108 -2.99899,-4.716786 -2.99899,-7.677376 0,-2.974984 1.13003,-5.712448 2.99899,-7.736159 z"
                 fill="#010101"
                 id="path2095-5-9"
                 style="stroke-width:1.19959"
                 sodipodi:nodetypes="ccsccsccsccsccccsccsccsccscc" /></g><path
               fill="#010101"
               d="m 264.6725,-40.428515 h 13.02394 l -4.65322,-15.815399 c -1.22958,0.269902 -2.46874,0.365884 -3.72113,0 z"
               fill-rule="evenodd"
               id="path2099-5-0"
               style="stroke-width:1.19959" /><g
               id="g43099-4-4"
               transform="matrix(0.28694957,0,0,0.28694957,292.47762,-65.31351)"><path
                 d="m -71.397177,-24.213312 -4.546071,-2.65e-4 c -13.443214,1.154113 -23.965693,12.355248 -23.965693,26.068073 0,13.645885 10.522743,25.049691 23.965693,26.205391 l 4.546071,5.3e-4 c 13.308012,-1.083998 23.965958,-12.559507 23.965958,-26.2056564 0,-13.7773836 -10.657946,-24.9824876 -23.965958,-26.0680726 z m -2.239698,47.997797 c -11.880321,0 -21.658527,-10.11555 -21.658527,-21.9294598 0,-11.8128519 9.778471,-21.7926702 21.658527,-21.7926702 11.74459,0 21.454269,9.9798183 21.454269,21.7926702 0,11.8133808 -9.709944,21.9294598 -21.454269,21.9294598 z"
                 id="path43069-5-9"
                 style="stroke-width:0.264583"
                 sodipodi:nodetypes="ccsccscsssss" /><path
                 d="m -78.252531,3.6205897 c -1.62904,0 -3.190875,1.2911667 -5.093229,3.8025917 l -4.752446,-3.1236708 c 2.513542,-5.431102 5.364162,-7.8081187 8.827558,-7.8081187 3.733006,0 7.466013,3.59648123 10.182754,3.59648123 1.62904,0 3.189817,-0.81279999 5.226579,-3.80126873 l 4.684713,3.12128957 c -2.578894,4.95723323 -5.226315,7.94543743 -9.367838,7.94543743 -4.007908,0 -7.467335,-3.7327417 -9.708091,-3.7327417"
                 id="path43071-9-2"
                 style="stroke-width:0.264583" /></g></g><g
             id="g47296"
             transform="translate(0,-4.2333335)"><rect
               style="fill:#ffdf00;fill-opacity:1;stroke:none;stroke-width:1.89395;stroke-linecap:round;stroke-dasharray:none;stroke-opacity:1"
               id="rect44918"
               width="118.949"
               height="43.836994"
               x="166.27458"
               y="87.355331" /><text
               xml:space="preserve"
               id="text2224-5"
               style="font-size:3.88056px;line-height:1.25;font-family:sans-serif;text-align:center;white-space:pre;shape-inside:url(#rect2226-9);display:inline"
               x="6.2206435"
               y="0"
               transform="matrix(5.4435632,0,0,5.4435632,-379.50558,-52.181599)"><tspan
                 x="102.95261"
                 y="29.339181"
                 id="tspan47447"><tspan
                   style="font-weight:bold;font-family:Helvetica;-inkscape-font-specification:'Helvetica Bold'"
                   id="tspan47445">DANGER</tspan></tspan></text><text
               xml:space="preserve"
               id="text2224-5-9"
               style="font-size:1.5619px;line-height:1.25;font-family:sans-serif;text-align:center;white-space:pre;shape-inside:url(#rect2226-9-1);display:inline"
               x="6.2206435"
               y="0"
               transform="matrix(11.293207,0,0,11.293207,-1031.279,-182.29726)"><tspan
                 x="109.63364"
                 y="27.223797"
                 id="tspan47451"><tspan
                   style="font-weight:bold;font-family:Helvetica;-inkscape-font-specification:'Helvetica Bold'"
                   id="tspan47449">EMF</tspan></tspan></text></g></g></g></g></g></svg>
